<svg xmlns="http://www.w3.org/2000/svg" viewBox="0 0 600 450" width="600" height="450">
  <defs>
    <!-- Enhanced gradients -->
    <radialGradient id="skyGrad" cx="40%" cy="20%" r="80%">
      <stop offset="0%" style="stop-color:#FFE5B4;stop-opacity:1" />
      <stop offset="30%" style="stop-color:#87CEEB;stop-opacity:1" />
      <stop offset="100%" style="stop-color:#4A70D9;stop-opacity:1" />
    </radialGradient>
    <linearGradient id="groundGrad" x1="0%" y1="0%" x2="0%" y2="100%">
      <stop offset="0%" style="stop-color:#90C869;stop-opacity:1" />
      <stop offset="100%" style="stop-color:#5A8A35;stop-opacity:1" />
    </linearGradient>
    <radialGradient id="sunGrad" cx="30%" cy="30%" r="70%">
      <stop offset="0%" style="stop-color:#FFFACD;stop-opacity:1" />
      <stop offset="50%" style="stop-color:#FFE566;stop-opacity:1" />
      <stop offset="100%" style="stop-color:#FFA500;stop-opacity:1" />
    </radialGradient>
    <radialGradient id="pelicanBodyGrad" cx="30%" cy="30%" r="80%">
      <stop offset="0%" style="stop-color:#FFFFFF;stop-opacity:1" />
      <stop offset="60%" style="stop-color:#F8F8FF;stop-opacity:1" />
      <stop offset="100%" style="stop-color:#E6F3FF;stop-opacity:1" />
    </radialGradient>
    <linearGradient id="bikeFrameGrad" x1="0%" y1="0%" x2="100%" y2="100%">
      <stop offset="0%" style="stop-color:#FF6B6B;stop-opacity:1" />
      <stop offset="50%" style="stop-color:#E63946;stop-opacity:1" />
      <stop offset="100%" style="stop-color:#CC2936;stop-opacity:1" />
    </linearGradient>
    <radialGradient id="tireGrad" cx="30%" cy="30%" r="70%">
      <stop offset="0%" style="stop-color:#555;stop-opacity:1" />
      <stop offset="80%" style="stop-color:#222;stop-opacity:1" />
      <stop offset="100%" style="stop-color:#000;stop-opacity:1" />
    </radialGradient>
    <linearGradient id="rimGrad" x1="0%" y1="0%" x2="100%" y2="100%">
      <stop offset="0%" style="stop-color:#C0C0C0;stop-opacity:1" />
      <stop offset="50%" style="stop-color:#888;stop-opacity:1" />
      <stop offset="100%" style="stop-color:#555;stop-opacity:1" />
    </linearGradient>
    <radialGradient id="beakGrad" cx="20%" cy="40%" r="80%">
      <stop offset="0%" style="stop-color:#FFB347;stop-opacity:1" />
      <stop offset="50%" style="stop-color:#FF8C00;stop-opacity:1" />
      <stop offset="100%" style="stop-color:#E67300;stop-opacity:1" />
    </radialGradient>
    <radialGradient id="pouchGrad" cx="30%" cy="20%" r="90%">
      <stop offset="0%" style="stop-color:#FF8A5B;stop-opacity:1" />
      <stop offset="50%" style="stop-color:#FF6B35;stop-opacity:1" />
      <stop offset="100%" style="stop-color:#E05020;stop-opacity:1" />
    </radialGradient>
    <!-- Shadow filter -->
    <filter id="shadow" x="-50%" y="-50%" width="200%" height="200%">
      <feDropShadow dx="3" dy="3" stdDeviation="2" flood-opacity="0.3"/>
    </filter>
  </defs>

  <!-- Background -->
  <rect width="600" height="450" fill="url(#skyGrad)" />

  <!-- Enhanced sun with glow -->
  <circle cx="520" cy="60" r="45" fill="url(#sunGrad)" opacity="0.9" />
  <circle cx="520" cy="60" r="35" fill="#FFFACD" opacity="0.7" />
  <!-- Sun rays -->
  <g stroke="#FFE566" stroke-width="2.5" opacity="0.8">
    <line x1="520" y1="5" x2="520" y2="15" />
    <line x1="575" y1="60" x2="585" y2="60" />
    <line x1="560" y1="20" x2="567" y2="13" />
    <line x1="560" y1="100" x2="567" y2="107" />
    <line x1="465" y1="60" x2="455" y2="60" />
    <line x1="480" y1="20" x2="473" y2="13" />
    <line x1="480" y1="100" x2="473" y2="107" />
    <line x1="550" y1="30" x2="558" y2="22" />
    <line x1="550" y1="90" x2="558" y2="98" />
    <line x1="490" y1="30" x2="482" y2="22" />
    <line x1="490" y1="90" x2="482" y2="98" />
  </g>

  <!-- Enhanced ground -->
  <rect x="0" y="380" width="600" height="70" fill="url(#groundGrad)" />
  <!-- Grass texture -->
  <g stroke="#7EC850" stroke-width="1" opacity="0.6">
    <line x1="20" y1="390" x2="22" y2="385" />
    <line x1="45" y1="392" x2="47" y2="386" />
    <line x1="80" y1="391" x2="82" y2="387" />
    <line x1="120" y1="393" x2="122" y2="388" />
    <line x1="160" y1="390" x2="162" y2="385" />
    <line x1="200" y1="392" x2="202" y2="387" />
    <line x1="240" y1="391" x2="242" y2="386" />
    <line x1="280" y1="393" x2="282" y2="388" />
    <line x1="320" y1="390" x2="322" y2="385" />
    <line x1="360" y1="392" x2="362" y2="387" />
    <line x1="400" y1="391" x2="402" y2="386" />
    <line x1="440" y1="393" x2="442" y2="388" />
    <line x1="480" y1="390" x2="482" y2="385" />
    <line x1="520" y1="392" x2="522" y2="387" />
    <line x1="560" y1="391" x2="562" y2="386" />
  </g>

  <!-- Enhanced road -->
  <rect x="0" y="365" width="600" height="25" fill="#666" />
  <rect x="0" y="368" width="600" height="3" fill="#555" />
  <rect x="0" y="385" width="600" height="3" fill="#777" />
  <!-- Road markings -->
  <g fill="#FFFF33">
    <rect x="40" y="375" width="50" height="3" rx="1.5" />
    <rect x="140" y="375" width="50" height="3" rx="1.5" />
    <rect x="240" y="375" width="50" height="3" rx="1.5" />
    <rect x="340" y="375" width="50" height="3" rx="1.5" />
    <rect x="440" y="375" width="50" height="3" rx="1.5" />
    <rect x="540" y="375" width="50" height="3" rx="1.5" />
  </g>

  <!-- === ENHANCED BICYCLE === -->

  <!-- Rear wheel shadow -->
  <ellipse cx="188" cy="340" rx="78" ry="15" fill="#000" opacity="0.2" />
  <!-- Front wheel shadow -->
  <ellipse cx="418" cy="340" rx="78" ry="15" fill="#000" opacity="0.2" />

  <!-- Rear wheel -->
  <circle cx="185" cy="325" r="78" fill="url(#tireGrad)" />
  <circle cx="185" cy="325" r="70" fill="url(#rimGrad)" />
  <circle cx="185" cy="325" r="62" fill="none" stroke="#AAA" stroke-width="1" />
  <circle cx="185" cy="325" r="12" fill="url(#rimGrad)" />
  <!-- Enhanced spokes -->
  <g stroke="url(#rimGrad)" stroke-width="3" opacity="0.9">
    <line x1="185" y1="247" x2="185" y2="337" />
    <line x1="185" y1="325" x2="185" y2="403" />
    <line x1="107" y1="325" x2="197" y2="325" />
    <line x1="185" y1="325" x2="263" y2="325" />
    <line x1="130" y1="270" x2="190" y2="330" />
    <line x1="185" y1="325" x2="240" y2="380" />
    <line x1="240" y1="270" x2="180" y2="330" />
    <line x1="185" y1="325" x2="130" y2="380" />
  </g>
  <!-- Tire tread -->
  <circle cx="185" cy="325" r="78" fill="none" stroke="#333" stroke-width="2" stroke-dasharray="8,4" />

  <!-- Front wheel -->
  <circle cx="415" cy="325" r="78" fill="url(#tireGrad)" />
  <circle cx="415" cy="325" r="70" fill="url(#rimGrad)" />
  <circle cx="415" cy="325" r="62" fill="none" stroke="#AAA" stroke-width="1" />
  <circle cx="415" cy="325" r="12" fill="url(#rimGrad)" />
  <!-- Enhanced spokes -->
  <g stroke="url(#rimGrad)" stroke-width="3" opacity="0.9">
    <line x1="415" y1="247" x2="415" y2="337" />
    <line x1="415" y1="325" x2="415" y2="403" />
    <line x1="337" y1="325" x2="427" y2="325" />
    <line x1="415" y1="325" x2="493" y2="325" />
    <line x1="360" y1="270" x2="420" y2="330" />
    <line x1="415" y1="325" x2="470" y2="380" />
    <line x1="470" y1="270" x2="410" y2="330" />
    <line x1="415" y1="325" x2="360" y2="380" />
  </g>
  <!-- Tire tread -->
  <circle cx="415" cy="325" r="78" fill="none" stroke="#333" stroke-width="2" stroke-dasharray="8,4" />

  <!-- Enhanced bike frame -->
  <g stroke="url(#bikeFrameGrad)" stroke-width="8" stroke-linecap="round" filter="url(#shadow)">
    <line x1="185" y1="325" x2="300" y2="305" /> <!-- chain stay -->
    <line x1="185" y1="325" x2="285" y2="230" /> <!-- seat stay -->
    <line x1="300" y1="305" x2="345" y2="185" /> <!-- down tube -->
    <line x1="300" y1="305" x2="285" y2="230" /> <!-- seat tube -->
    <line x1="285" y1="230" x2="345" y2="185" /> <!-- top tube -->
    <line x1="345" y1="185" x2="365" y2="220" /> <!-- head tube -->
    <line x1="365" y1="220" x2="415" y2="325" /> <!-- fork -->
  </g>

  <!-- Enhanced components -->
  <!-- Handlebar -->
  <line x1="345" y1="185" x2="340" y2="165" stroke="#999" stroke-width="6" stroke-linecap="round" />
  <line x1="315" y1="162" x2="365" y2="162" stroke="#777" stroke-width="5" stroke-linecap="round" />
  <rect x="312" y="158" width="15" height="8" rx="4" fill="#1a1a1a" />
  <rect x="358" y="158" width="15" height="8" rx="4" fill="#1a1a1a" />

  <!-- Seat -->
  <line x1="285" y1="230" x2="280" y2="200" stroke="#999" stroke-width="6" stroke-linecap="round" />
  <ellipse cx="277" cy="197" rx="35" ry="12" fill="#2a2a2a" />
  <ellipse cx="277" cy="194" rx="33" ry="10" fill="#444" />

  <!-- Enhanced pedal system -->
  <circle cx="300" cy="305" r="25" fill="none" stroke="#888" stroke-width="5" />
  <circle cx="300" cy="305" r="8" fill="#666" />
  <!-- Crank arms -->
  <line x1="300" y1="305" x2="275" y2="335" stroke="#999" stroke-width="7" stroke-linecap="round" />
  <line x1="300" y1="305" x2="325" y2="275" stroke="#999" stroke-width="7" stroke-linecap="round" />
  <!-- Pedals -->
  <rect x="265" y="330" width="25" height="10" rx="5" fill="#333" />
  <rect x="320" y="270" width="25" height="10" rx="5" fill="#333" />

  <!-- Chain -->
  <path d="M 275,305 Q 230,315 185,325" fill="none" stroke="#666" stroke-width="3" />

  <!-- === ENHANCED PELICAN === -->

  <!-- Pelican body shadow -->
  <ellipse cx="285" cy="210" rx="75" ry="20" fill="#000" opacity="0.15" />

  <!-- Main body -->
  <ellipse cx="280" cy="190" rx="75" ry="65" fill="url(#pelicanBodyGrad)" stroke="#C5D8E6" stroke-width="2" filter="url(#shadow)" />

  <!-- Enhanced wings with better feathering -->
  <!-- Left wing -->
  <path d="M 215,180 Q 145,135 115,155 Q 125,185 155,200 Q 185,205 215,195 Z" fill="url(#pelicanBodyGrad)" stroke="#B5C8D8" stroke-width="2" />
  <!-- Wing feather details -->
  <g stroke="#A5B8C8" stroke-width="1.5" fill="none">
    <path d="M 215,180 Q 170,155 140,160" />
    <path d="M 210,185 Q 165,165 135,170" />
    <path d="M 205,190 Q 160,175 130,180" />
    <path d="M 200,195 Q 155,185 125,190" />
  </g>
  <!-- Wing tip -->
  <path d="M 145,155 Q 130,150 125,160 Q 135,170 150,168 Z" fill="#2C3E50" />

  <!-- Right wing -->
  <path d="M 345,180 Q 415,135 445,155 Q 435,185 405,200 Q 375,205 345,195 Z" fill="url(#pelicanBodyGrad)" stroke="#B5C8D8" stroke-width="2" />
  <!-- Wing feather details -->
  <g stroke="#A5B8C8" stroke-width="1.5" fill="none">
    <path d="M 345,180 Q 390,155 420,160" />
    <path d="M 350,185 Q 395,165 425,170" />
    <path d="M 355,190 Q 400,175 430,180" />
    <path d="M 360,195 Q 405,185 435,190" />
  </g>
  <!-- Wing tip -->
  <path d="M 415,155 Q 430,150 435,160 Q 425,170 410,168 Z" fill="#2C3E50" />

  <!-- Enhanced tail -->
  <path d="M 345,235 Q 380,260 375,290 Q 365,275 355,265 Q 350,250 345,240 Z" fill="#E8F4F8" stroke="#B5C8D8" stroke-width="2" />
  <path d="M 350,242 Q 385,265 378,295 Q 368,280 358,270 Q 353,255 350,245 Z" fill="#D8E4E8" stroke="#B5C8D8" stroke-width="1.5" />

  <!-- Neck with better proportions -->
  <ellipse cx="280" cy="140" rx="28" ry="40" fill="url(#pelicanBodyGrad)" stroke="#C5D8E6" stroke-width="2" />

  <!-- Enhanced head -->
  <circle cx="285" cy="100" r="42" fill="url(#pelicanBodyGrad)" stroke="#C5D8E6" stroke-width="2" />

  <!-- Black cap (more realistic) -->
  <path d="M 250,85 Q 270,60 295,62 Q 320,65 325,85 Q 315,70 285,68 Q 260,68 250,85 Z" fill="#2C3E50" />

  <!-- Crown feathers -->
  <g fill="#FFD700" stroke="#DAA520" stroke-width="1">
    <path d="M 275,65 Q 280,45 285,63" />
    <path d="M 285,63 Q 295,40 300,62" />
    <path d="M 268,68 Q 270,48 278,66" />
    <path d="M 295,62 Q 305,42 310,64" />
  </g>

  <!-- Enhanced eye -->
  <circle cx="305" cy="95" r="12" fill="#FFF8DC" stroke="#DAA520" stroke-width="1" />
  <circle cx="306" cy="95" r="8" fill="#1A1A2E" />
  <circle cx="308" cy="92" r="2.5" fill="white" />
  <circle cx="308.5" cy="91.5" r="1" fill="#CCF" />

  <!-- Enhanced beak -->
  <path d="M 300,105 Q 385,95 405,112 Q 390,125 300,122 Z" fill="url(#beakGrad)" stroke="#E67300" stroke-width="2" />
  <!-- Beak detail ridge -->
  <line x1="302" y1="113" x2="402" y2="108" stroke="#E67300" stroke-width="1.5" />
  <!-- Nostril -->
  <ellipse cx="325" cy="108" rx="3" ry="1.5" fill="#D66300" />

  <!-- Enhanced pouch -->
  <path d="M 300,122 Q 385,125 405,112 Q 395,150 360,170 Q 320,175 300,150 Z" fill="url(#pouchGrad)" stroke="#E05020" stroke-width="2" />
  <!-- Pouch texture -->
  <g stroke="#D04010" stroke-width="1" fill="none">
    <path d="M 310,130 Q 350,132 390,118" />
    <path d="M 305,140 Q 345,145 385,130" />
    <path d="M 302,150 Q 335,158 375,145" />
    <path d="M 305,160 Q 330,166 360,158" />
  </g>
  <!-- Beak hook -->
  <path d="M 403,108 Q 412,105 410,115 Q 407,122 403,118 Z" fill="url(#beakGrad)" stroke="#E67300" stroke-width="1" />

  <!-- Enhanced legs and feet -->
  <!-- Left leg -->
  <path d="M 250,245 Q 245,285 275,335" stroke="#FF8C00" stroke-width="6" fill="none" stroke-linecap="round" />
  <!-- Left foot with detailed webbing -->
  <g stroke="#FF8C00" stroke-width="4" fill="none" stroke-linecap="round">
    <path d="M 275,335 Q 265,345 255,342" />
    <path d="M 275,335 Q 270,350 260,347" />
    <path d="M 275,335 Q 275,352 265,349" />
  </g>
  <path d="M 275,335 L 255,342 L 260,347 L 265,349 Z" fill="#FF6B35" opacity="0.8" />

  <!-- Right leg -->
  <path d="M 310,245 Q 315,275 325,275" stroke="#FF8C00" stroke-width="6" fill="none" stroke-linecap="round" />
  <!-- Right foot -->
  <g stroke="#FF8C00" stroke-width="4" fill="none" stroke-linecap="round">
    <path d="M 325,275 Q 335,270 345,272" />
    <path d="M 325,275 Q 340,265 350,267" />
    <path d="M 325,275 Q 345,260 355,262" />
  </g>
  <path d="M 325,275 L 345,272 L 350,267 L 355,262 Z" fill="#FF6B35" opacity="0.8" />

  <!-- Enhanced clouds with depth -->
  <g opacity="0.9">
    <ellipse cx="75" cy="75" rx="48" ry="28" fill="white" />
    <ellipse cx="50" cy="83" rx="30" ry="22" fill="#F8F8FF" />
    <ellipse cx="105" cy="80" rx="32" ry="22" fill="#F8F8FF" />
    <ellipse cx="85" cy="68" rx="25" ry="18" fill="white" />
  </g>

  <g opacity="0.85">
    <ellipse cx="450" cy="45" rx="42" ry="25" fill="white" />
    <ellipse cx="425" cy="52" rx="25" ry="18" fill="#F8F8FF" />
    <ellipse cx="475" cy="50" rx="28" ry="20" fill="#F8F8FF" />
    <ellipse cx="455" cy="38" rx="20" ry="15" fill="white" />
  </g>

  <!-- Motion lines -->
  <g stroke="#FFF" stroke-width="3" stroke-linecap="round" opacity="0.6">
    <line x1="70" y1="210" x2="110" y2="210" />
    <line x1="60" y1="225" x2="105" y2="225" />
    <line x1="75" y1="240" x2="115" y2="240" />
  </g>
  <g stroke="#FFF" stroke-width="2" stroke-linecap="round" opacity="0.4">
    <line x1="80" y1="255" x2="115" y2="255" />
    <line x1="70" y1="270" x2="110" y2="270" />
  </g>

  <!-- Enhanced title -->
  <text x="300" y="430" font-family="Arial, sans-serif" font-size="20" font-weight="bold" fill="#2C3E50" text-anchor="middle" opacity="0.9">
    🚴‍♂️ Pedaling Pelican Paradise 🦢
  </text>
</svg>
